<svg width="200" height="50" viewBox="0 0 200 50" fill="none" xmlns="http://www.w3.org/2000/svg">
  <path d="M29.5 10H10V20H20V30H10V40H29.5V10Z" fill="#4ECDC4"/>
  <path d="M39.5 10H50V40H39.5V30H34.5V20H39.5V10Z" fill="#4ECDC4"/>
  <path d="M60 10H70.5V20H80.5V10H91V40H80.5V30H70.5V40H60V10Z" fill="#4ECDC4"/>
  <path d="M101 10H130.5V20H120.5V40H110V20H101V10Z" fill="#4ECDC4"/>
  <path d="M140.5 10H151V20H161V10H171.5V40H161V30H151V40H140.5V10Z" fill="#4ECDC4"/>
  <path d="M181.5 10H192V40H181.5V10Z" fill="#4ECDC4"/>
  <path d="M192 15C192 12.2386 194.239 10 197 10C199.761 10 202 12.2386 202 15C202 17.7614 199.761 20 197 20C194.239 20 192 17.7614 192 15Z" fill="#4ECDC4"/>
</svg>

